<svg width="208" height="31" viewBox="0 0 208 31" fill="none" xmlns="http://www.w3.org/2000/svg">
<path d="M15.0554 4.224L8.09542 18.624H22.0634L15.0554 4.224ZM10.9754 0.815998H15.2474C15.7594 0.815998 16.1114 1.008 16.3034 1.392L29.8874 28.848C29.9514 28.976 29.9834 29.12 29.9834 29.28C29.9834 29.824 29.7274 30.192 29.2154 30.384C29.0234 30.448 28.8474 30.48 28.6874 30.48C28.1434 30.48 27.7754 30.272 27.5834 29.856L23.1194 20.832H7.03942L2.57542 29.856C2.28742 30.496 1.74342 30.672 0.943425 30.384C0.431425 30.192 0.175425 29.84 0.175425 29.328C0.175425 29.2 0.207425 29.056 0.271425 28.896L13.0394 3.072H10.9754C10.6554 3.072 10.3834 2.976 10.1594 2.784C9.96743 2.56 9.87143 2.288 9.87143 1.968C9.87143 1.648 9.96743 1.376 10.1594 1.152C10.3834 0.927999 10.6554 0.815998 10.9754 0.815998ZM32.0028 28.128V24.24C32.0028 23.92 32.1308 23.664 32.3868 23.472C32.6428 23.248 32.9468 23.136 33.2988 23.136C33.6508 23.136 33.9548 23.248 34.2108 23.472C34.4668 23.664 34.5948 23.92 34.5948 24.24V27.504C36.1308 28.016 37.7308 28.272 39.3948 28.272C43.0428 28.272 44.8668 27.248 44.8668 25.2C44.8668 23.664 43.1548 22.528 39.7308 21.792C39.5708 21.76 39.2188 21.68 38.6748 21.552C38.1308 21.424 37.6828 21.328 37.3308 21.264C36.9788 21.168 36.3868 20.976 35.5548 20.688C34.7548 20.368 34.1788 20.048 33.8268 19.728C32.8668 18.864 32.3868 17.808 32.3868 16.56C32.3868 15.28 32.8028 14.256 33.6348 13.488C34.4988 12.688 35.4428 12.176 36.4668 11.952C37.4908 11.696 38.6108 11.568 39.8268 11.568C42.0668 11.568 44.1308 12 46.0188 12.864C46.5948 13.12 46.8828 13.472 46.8828 13.92V17.616C46.8828 17.936 46.7548 18.208 46.4988 18.432C46.2428 18.624 45.9388 18.72 45.5868 18.72C45.2348 18.72 44.9308 18.624 44.6748 18.432C44.4188 18.208 44.2908 17.936 44.2908 17.616V14.544C43.0108 14.032 41.5228 13.776 39.8268 13.776C36.5628 13.776 34.9308 14.704 34.9308 16.56C34.9308 17.232 35.1388 17.696 35.5548 17.952C36.0028 18.208 36.3228 18.4 36.5148 18.528C36.7388 18.656 37.1228 18.784 37.6668 18.912C38.4348 19.104 39.2188 19.28 40.0188 19.44C40.8188 19.6 41.4748 19.744 41.9868 19.872C42.4988 20 43.1388 20.224 43.9068 20.544C44.7068 20.832 45.3308 21.168 45.7788 21.552C46.8988 22.448 47.4588 23.616 47.4588 25.056C47.4588 26.496 46.9788 27.648 46.0188 28.512C45.0908 29.344 44.0668 29.872 42.9468 30.096C41.8588 30.352 40.6748 30.48 39.3948 30.48C36.8668 30.48 34.6908 30.064 32.8668 29.232C32.2908 28.976 32.0028 28.608 32.0028 28.128ZM65.4641 26.928C65.7201 26.768 66.0081 26.72 66.3281 26.784C66.6801 26.848 66.9201 26.992 67.0481 27.216C67.1761 27.408 67.2401 27.584 67.2401 27.744C67.2401 28.224 67.0641 28.576 66.7121 28.8C64.7921 29.92 62.7281 30.48 60.5201 30.48C58.3121 30.48 56.7281 30.032 55.7681 29.136C54.8081 28.208 54.3281 26.688 54.3281 24.576V14.304H51.64C51.32 14.304 51.048 14.208 50.824 14.016C50.632 13.792 50.536 13.52 50.536 13.2C50.536 12.88 50.632 12.608 50.824 12.384C51.048 12.16 51.32 12.048 51.64 12.048H54.3281V5.184C54.3281 4.864 54.4561 4.608 54.7121 4.416C54.9681 4.192 55.272 4.08 55.624 4.08C55.9761 4.08 56.2801 4.192 56.5361 4.416C56.7921 4.608 56.9201 4.864 56.9201 5.184V12.048H64.9841C65.3041 12.048 65.5601 12.16 65.7521 12.384C65.9761 12.608 66.0881 12.88 66.0881 13.2C66.0881 13.52 65.9761 13.792 65.7521 14.016C65.5601 14.208 65.3041 14.304 64.9841 14.304H56.9201V24.576C56.9201 25.92 57.1921 26.88 57.736 27.456C58.3121 28 59.3521 28.272 60.8561 28.272C62.3921 28.272 63.9281 27.824 65.4641 26.928ZM69.1555 12.048H71.6036C73.6196 12.048 74.6596 13.136 74.7236 15.312C76.4516 12.816 78.4996 11.568 80.8675 11.568C82.2116 11.568 83.3476 11.824 84.2756 12.336C84.7236 12.592 84.9476 12.928 84.9476 13.344V17.376C84.9476 17.696 84.8196 17.968 84.5636 18.192C84.3076 18.384 84.0036 18.48 83.6516 18.48C83.2996 18.48 82.9956 18.384 82.7396 18.192C82.4836 17.968 82.3556 17.696 82.3556 17.376V14.016C81.9396 13.856 81.3156 13.776 80.4836 13.776C79.6516 13.776 78.7076 14.176 77.6516 14.976C76.5956 15.744 75.6836 16.896 74.9155 18.432V29.376C74.9155 29.696 74.7875 29.952 74.5315 30.144C74.2755 30.368 73.9715 30.48 73.6196 30.48C73.2676 30.48 72.9636 30.368 72.7076 30.144C72.4516 29.952 72.3236 29.696 72.3236 29.376V15.216C72.3236 14.608 72.0036 14.304 71.3635 14.304H69.1555C68.8355 14.304 68.5635 14.208 68.3395 14.016C68.1475 13.792 68.0515 13.52 68.0515 13.2C68.0515 12.88 68.1475 12.608 68.3395 12.384C68.5635 12.16 68.8355 12.048 69.1555 12.048ZM96.9944 28.272C98.9464 28.272 100.53 27.6 101.746 26.256C102.994 24.912 103.618 23.184 103.618 21.072C103.618 18.928 102.994 17.184 101.746 15.84C100.53 14.464 98.9464 13.776 96.9944 13.776C95.0424 13.776 93.4424 14.464 92.1944 15.84C90.9784 17.184 90.3704 18.928 90.3704 21.072C90.3704 23.184 90.9784 24.912 92.1944 26.256C93.4424 27.6 95.0424 28.272 96.9944 28.272ZM90.3224 27.84C88.6264 26.048 87.7784 23.776 87.7784 21.024C87.7784 18.272 88.6424 16.016 90.3704 14.256C92.0984 12.464 94.3064 11.568 96.9944 11.568C99.6824 11.568 101.874 12.464 103.57 14.256C105.298 16.016 106.162 18.288 106.162 21.072C106.162 23.824 105.298 26.08 103.57 27.84C101.874 29.6 99.6664 30.48 96.9464 30.48C94.2584 30.48 92.0504 29.6 90.3224 27.84ZM124.647 12.24C124.871 11.76 125.127 11.52 125.415 11.52C126.183 11.52 126.711 11.808 126.999 12.384C127.063 12.544 127.095 12.704 127.095 12.864C127.095 12.992 127.063 13.12 126.999 13.248L119.127 29.712C118.871 30.224 118.455 30.48 117.879 30.48C117.335 30.48 116.935 30.224 116.679 29.712L108.759 13.248C108.695 13.12 108.663 12.976 108.663 12.816C108.663 12.336 108.951 11.968 109.527 11.712C109.783 11.584 110.055 11.52 110.343 11.52C110.663 11.52 110.935 11.76 111.159 12.24L117.927 26.832L124.647 12.24ZM144.747 19.44C144.651 17.712 144.139 16.336 143.211 15.312C142.315 14.288 141.003 13.776 139.275 13.776C137.579 13.776 136.155 14.304 135.003 15.36C133.851 16.384 133.131 17.744 132.843 19.44H144.747ZM144.843 25.392C145.067 25.008 145.323 24.816 145.611 24.816C145.899 24.816 146.187 24.896 146.475 25.056C146.763 25.184 146.955 25.408 147.051 25.728C147.179 26.016 147.163 26.288 147.003 26.544C145.371 29.168 142.779 30.48 139.227 30.48C136.411 30.48 134.187 29.584 132.555 27.792C130.955 25.968 130.155 23.68 130.155 20.928C130.155 18.176 130.987 15.936 132.651 14.208C134.315 12.448 136.507 11.568 139.227 11.568C141.947 11.568 143.963 12.384 145.275 14.016C146.619 15.648 147.291 17.824 147.291 20.544C147.291 21.28 146.875 21.648 146.043 21.648L132.747 21.696C132.875 23.68 133.515 25.28 134.667 26.496C135.851 27.68 137.371 28.272 139.227 28.272C141.723 28.272 143.595 27.312 144.843 25.392ZM150.671 12.048H153.119C155.135 12.048 156.175 13.136 156.239 15.312C157.967 12.816 160.015 11.568 162.383 11.568C163.727 11.568 164.863 11.824 165.791 12.336C166.239 12.592 166.463 12.928 166.463 13.344V17.376C166.463 17.696 166.335 17.968 166.079 18.192C165.823 18.384 165.519 18.48 165.167 18.48C164.815 18.48 164.511 18.384 164.255 18.192C163.999 17.968 163.871 17.696 163.871 17.376V14.016C163.455 13.856 162.831 13.776 161.999 13.776C161.167 13.776 160.223 14.176 159.167 14.976C158.111 15.744 157.199 16.896 156.431 18.432V29.376C156.431 29.696 156.303 29.952 156.047 30.144C155.791 30.368 155.487 30.48 155.135 30.48C154.783 30.48 154.479 30.368 154.223 30.144C153.967 29.952 153.839 29.696 153.839 29.376V15.216C153.839 14.608 153.519 14.304 152.879 14.304H150.671C150.351 14.304 150.079 14.208 149.855 14.016C149.663 13.792 149.567 13.52 149.567 13.2C149.567 12.88 149.663 12.608 149.855 12.384C150.079 12.16 150.351 12.048 150.671 12.048ZM169.534 28.128V24.24C169.534 23.92 169.662 23.664 169.918 23.472C170.174 23.248 170.478 23.136 170.83 23.136C171.182 23.136 171.486 23.248 171.742 23.472C171.998 23.664 172.126 23.92 172.126 24.24V27.504C173.662 28.016 175.262 28.272 176.926 28.272C180.574 28.272 182.398 27.248 182.398 25.2C182.398 23.664 180.686 22.528 177.262 21.792C177.102 21.76 176.75 21.68 176.206 21.552C175.662 21.424 175.214 21.328 174.862 21.264C174.51 21.168 173.918 20.976 173.086 20.688C172.286 20.368 171.71 20.048 171.358 19.728C170.398 18.864 169.918 17.808 169.918 16.56C169.918 15.28 170.334 14.256 171.166 13.488C172.03 12.688 172.974 12.176 173.998 11.952C175.022 11.696 176.142 11.568 177.358 11.568C179.598 11.568 181.662 12 183.55 12.864C184.126 13.12 184.414 13.472 184.414 13.92V17.616C184.414 17.936 184.286 18.208 184.03 18.432C183.774 18.624 183.47 18.72 183.118 18.72C182.766 18.72 182.462 18.624 182.206 18.432C181.95 18.208 181.822 17.936 181.822 17.616V14.544C180.542 14.032 179.054 13.776 177.358 13.776C174.094 13.776 172.462 14.704 172.462 16.56C172.462 17.232 172.67 17.696 173.086 17.952C173.534 18.208 173.854 18.4 174.046 18.528C174.27 18.656 174.654 18.784 175.198 18.912C175.966 19.104 176.75 19.28 177.55 19.44C178.35 19.6 179.006 19.744 179.518 19.872C180.03 20 180.67 20.224 181.438 20.544C182.238 20.832 182.862 21.168 183.31 21.552C184.43 22.448 184.99 23.616 184.99 25.056C184.99 26.496 184.51 27.648 183.55 28.512C182.622 29.344 181.598 29.872 180.478 30.096C179.39 30.352 178.206 30.48 176.926 30.48C174.398 30.48 172.222 30.064 170.398 29.232C169.822 28.976 169.534 28.608 169.534 28.128ZM198.291 28.272C200.243 28.272 201.827 27.6 203.043 26.256C204.291 24.912 204.915 23.184 204.915 21.072C204.915 18.928 204.291 17.184 203.043 15.84C201.827 14.464 200.243 13.776 198.291 13.776C196.339 13.776 194.739 14.464 193.491 15.84C192.275 17.184 191.667 18.928 191.667 21.072C191.667 23.184 192.275 24.912 193.491 26.256C194.739 27.6 196.339 28.272 198.291 28.272ZM191.619 27.84C189.923 26.048 189.075 23.776 189.075 21.024C189.075 18.272 189.939 16.016 191.667 14.256C193.395 12.464 195.603 11.568 198.291 11.568C200.979 11.568 203.171 12.464 204.867 14.256C206.595 16.016 207.459 18.288 207.459 21.072C207.459 23.824 206.595 26.08 204.867 27.84C203.171 29.6 200.963 30.48 198.243 30.48C195.555 30.48 193.347 29.6 191.619 27.84Z" fill="#D0CEDD"/>
</svg>
